<svg width="64" height="50" fill="none" xmlns="http://www.w3.org/2000/svg"><path d="M2.37575 41.6c-.32 0-.60533-.0693-.856-.208-.24533-.144-.43733-.3387-.576-.584-.138667-.2507-.208-.536-.208-.856 0-.3147.069333-.5973.208-.848.13867-.2507.33067-.4453.576-.584.25067-.144.536-.216.856-.216.31467 0 .59467.072.84.216.25067.1387.44533.3333.584.584.13867.2507.208.5333.208.848 0 .32-.06933.6053-.208.856-.13867.2453-.33333.44-.584.584-.24533.1387-.52533.208-.84.208Zm0-.328c.384 0 .69333-.1227.928-.368.23467-.2453.352-.5627.352-.952 0-.384-.11733-.6987-.352-.944-.23467-.2453-.544-.368-.928-.368-.38933 0-.70133.1227-.936.368-.23467.2453-.352.56-.352.944 0 .3893.11733.7067.352.952.23467.2453.54667.368.936.368Zm-.664-.48V39.08h.8c.176 0 .31733.048.424.144.10667.096.16.2267.16.392 0 .2613-.12533.4293-.376.504l.448.672h-.496l-.392-.648h-.144v.648h-.424Zm.424-.968h.32c.05867 0 .10933-.0133.152-.04.04267-.032.064-.0827.064-.152 0-.064-.02133-.1093-.064-.136-.04267-.0267-.09333-.04-.152-.04h-.32v.368ZM6.97425 44v-5.6h2.112c.58133 0 1.02135.136 1.31995.408.2987.272.4481.6133.4481 1.024 0 .3573-.096.6427-.288.856-.192.208-.424.3493-.69605.424.21335.0427.40265.128.56805.256.1706.128.304.288.4.48.096.192.144.4.144.624 0 .288-.072.5493-.216.784-.1387.2293-.344.4107-.616.544-.27205.1333-.60538.2-1.00005.2h-2.176Zm.848-3.2h1.16c.32533 0 .57333-.0747.744-.224.17067-.1547.256-.3653.256-.632 0-.2613-.08533-.4693-.256-.624-.16533-.1547-.41867-.232-.76-.232h-1.144V40.8Zm0 2.504h1.216c.34133 0 .60533-.08.792-.24.19205-.16.28805-.384.28805-.672 0-.288-.0987-.5147-.29605-.68-.19733-.1707-.464-.256-.8-.256h-1.2v1.848Zm5.40155.792c-.336 0-.6134-.056-.832-.168-.2187-.112-.3814-.2587-.488-.44-.1067-.1867-.16-.3893-.16-.608 0-.384.1493-.688.448-.912.2986-.224.7253-.336 1.28-.336h1.04v-.072c0-.3093-.0854-.5413-.256-.696-.1654-.1547-.3814-.232-.648-.232-.2347 0-.44.0587-.616.176-.1707.112-.2747.28-.312.504h-.848c.0266-.288.1226-.5333.288-.736.1706-.208.384-.3653.64-.472.2613-.112.5466-.168.856-.168.5546 0 .984.1467 1.288.44.304.288.456.6827.456 1.184V44h-.736l-.072-.68c-.112.2187-.2747.4027-.488.552-.2134.1493-.4934.224-.84.224Zm.168-.688c.2293 0 .4213-.0533.576-.16.16-.112.2826-.2587.368-.44.0906-.1813.1466-.3813.168-.6h-.944c-.336 0-.576.0587-.72.176-.1387.1173-.208.264-.208.44 0 .1813.0666.3253.2.432.1386.1013.3253.152.56.152Zm4.5426.592c-.3894 0-.6987-.0933-.928-.28-.2294-.192-.344-.5307-.344-1.016v-1.96h-.68v-.712h.68l.104-1.008h.744v1.008h1.12v.712h-1.12v1.96c0 .2187.0453.3707.136.456.096.08.2586.12.488.12h.456V44h-.656Zm2.9144.096c-.336 0-.6134-.056-.832-.168-.2187-.112-.3814-.2587-.488-.44-.1067-.1867-.16-.3893-.16-.608 0-.384.1493-.688.448-.912.2986-.224.7253-.336 1.28-.336h1.04v-.072c0-.3093-.0854-.5413-.256-.696-.1654-.1547-.3814-.232-.648-.232-.2347 0-.44.0587-.616.176-.1707.112-.2747.28-.312.504h-.848c.0266-.288.1226-.5333.288-.736.1706-.208.384-.3653.64-.472.2613-.112.5466-.168.856-.168.5546 0 .984.1467 1.288.44.304.288.456.6827.456 1.184V44h-.736l-.072-.68c-.112.2187-.2747.4027-.488.552-.2134.1493-.4934.224-.84.224Zm.168-.688c.2293 0 .4213-.0533.576-.16.16-.112.2826-.2587.368-.44.0906-.1813.1466-.3813.168-.6h-.944c-.336 0-.576.0587-.72.176-.1387.1173-.208.264-.208.44 0 .1813.0666.3253.2.432.1386.1013.3253.152.56.152Zm4.5426.592c-.3894 0-.6987-.0933-.928-.28-.2294-.192-.344-.5307-.344-1.016v-1.96h-.68v-.712h.68l.104-1.008h.744v1.008h1.12v.712h-1.12v1.96c0 .2187.0453.3707.136.456.096.08.2586.12.488.12h.456V44h-.656Zm2.9144.096c-.336 0-.6134-.056-.832-.168-.2187-.112-.3814-.2587-.488-.44-.1067-.1867-.16-.3893-.16-.608 0-.384.1493-.688.448-.912.2986-.224.7253-.336 1.28-.336h1.04v-.072c0-.3093-.0854-.5413-.256-.696-.1654-.1547-.3814-.232-.648-.232-.2347 0-.44.0587-.616.176-.1707.112-.2747.28-.312.504h-.848c.0266-.288.1226-.5333.288-.736.1706-.208.384-.3653.64-.472.2613-.112.5466-.168.856-.168.5546 0 .984.1467 1.288.44.304.288.456.6827.456 1.184V44h-.736l-.072-.68c-.112.2187-.2747.4027-.488.552-.2134.1493-.4934.224-.84.224Zm.168-.688c.2293 0 .4213-.0533.576-.16.16-.112.2826-.2587.368-.44.0906-.1813.1466-.3813.168-.6h-.944c-.336 0-.576.0587-.72.176-.1387.1173-.208.264-.208.44 0 .1813.0666.3253.2.432.1386.1013.3253.152.56.152Zm5.1887.688c-.3093 0-.584-.0613-.824-.184-.2347-.1227-.4213-.296-.56-.52l-.088.608h-.76v-5.76h.848v2.408c.128-.1867.304-.352.528-.496.224-.144.512-.216.864-.216.384 0 .7227.0907 1.016.272.2933.1813.5227.4293.688.744.1707.3147.256.672.256 1.072s-.0853.7573-.256 1.072c-.1653.3093-.3947.5547-.688.736-.2933.176-.6347.264-1.024.264Zm-.144-.736c.3627 0 .6613-.1227.896-.368.2347-.2507.352-.576.352-.976 0-.2613-.0533-.4933-.16-.696-.1067-.2027-.2533-.36-.44-.472-.1867-.1173-.4027-.176-.648-.176-.3627 0-.6613.1253-.896.376-.2293.2507-.344.5733-.344.968 0 .4.1147.7253.344.976.2347.2453.5333.368.896.368Zm3.5092-4.08c-.16 0-.2933-.048-.4-.144-.1013-.1013-.152-.2267-.152-.376s.0507-.272.152-.368c.1067-.1013.24-.152.4-.152.16 0 .2907.0507.392.152.1067.096.16.2187.16.368s-.0533.2747-.16.376c-.1013.096-.232.144-.392.144Zm-.424 4.72v-3.968h.848V44h-.848Zm3.6314 0c-.3893 0-.6986-.0933-.928-.28-.2293-.192-.344-.5307-.344-1.016v-1.96h-.68v-.712h.68l.104-1.008h.744v1.008h1.12v.712h-1.12v1.96c0 .2187.0454.3707.136.456.096.08.2587.12.488.12h.456V44h-.656Zm3.506 0v-.608c.3627-.288.7094-.5787 1.04-.872.3307-.2933.624-.5813.88-.864.2614-.288.4667-.568.616-.84.1494-.2773.224-.544.224-.8 0-.1707-.0293-.3307-.088-.48-.0586-.1547-.1546-.2773-.288-.368-.1333-.096-.312-.144-.536-.144-.336 0-.5893.1067-.76.32-.1653.2133-.2453.4693-.24.768h-.824c.0054-.3947.088-.7253.248-.992.1654-.2667.384-.4693.656-.608.2774-.1387.5894-.208.936-.208.528 0 .9494.1493 1.264.448.32.2933.48.704.48 1.232 0 .3147-.0773.6267-.232.936-.1493.3093-.3466.608-.592.896-.24.2827-.4986.5493-.776.8-.2773.2507-.5413.4773-.792.68h2.56V44h-3.776Zm6.8677.096c-.5067 0-.944-.12-1.312-.36-.3627-.2453-.6427-.584-.84-1.016-.192-.4373-.288-.944-.288-1.52 0-.576.096-1.08.288-1.512.1973-.4373.4773-.776.84-1.016.368-.2453.8053-.368 1.312-.368.5066 0 .9413.1227 1.3039.368.3627.24.6401.5787.8321 1.016.1973.432.296.936.296 1.512s-.0987 1.0827-.296 1.52c-.192.432-.4694.7707-.8321 1.016-.3626.24-.7973.36-1.3039.36Zm0-.76c.304 0 .5733-.0853.808-.256.24-.1707.4266-.416.56-.736.1333-.32.2-.7013.2-1.144 0-.4427-.0667-.824-.2-1.144-.1334-.32-.32-.5653-.56-.736-.2347-.1707-.504-.256-.808-.256-.3094 0-.5814.0853-.816.256-.2347.1707-.4187.416-.552.736-.1334.32-.2.7013-.2 1.144 0 .4427.0666.824.2 1.144.1333.32.3173.5653.552.736.2346.1707.5066.256.816.256Zm3.2026.664v-.608c.3627-.288.7094-.5787 1.04-.872.3307-.2933.624-.5813.88-.864.2614-.288.4667-.568.616-.84.1494-.2773.224-.544.224-.8 0-.1707-.0293-.3307-.088-.48-.0586-.1547-.1546-.2773-.288-.368-.1333-.096-.312-.144-.536-.144-.336 0-.5893.1067-.76.32-.1653.2133-.2453.4693-.24.768h-.824c.0054-.3947.088-.7253.248-.992.1654-.2667.384-.4693.656-.608.2774-.1387.5894-.208.936-.208.528 0 .9494.1493 1.264.448.32.2933.48.704.48 1.232 0 .3147-.0773.6267-.232.936-.1493.3093-.3466.608-.592.896-.24.2827-.4986.5493-.776.8-.2773.2507-.5413.4773-.792.68h2.56V44h-3.776Zm6.8677.096c-.5067 0-.944-.12-1.312-.36-.3627-.2453-.6427-.584-.84-1.016-.192-.4373-.288-.944-.288-1.52 0-.576.096-1.08.288-1.512.1973-.4373.4773-.776.84-1.016.368-.2453.8053-.368 1.312-.368.5066 0 .9413.1227 1.304.368.3626.24.64.5787.832 1.016.1973.432.296.936.296 1.512s-.0987 1.0827-.296 1.52c-.192.432-.4694.7707-.832 1.016-.3627.24-.7974.36-1.304.36Zm0-.76c.304 0 .5733-.0853.808-.256.24-.1707.4266-.416.56-.736.1333-.32.2-.7013.2-1.144 0-.4427-.0667-.824-.2-1.144-.1334-.32-.32-.5653-.56-.736-.2347-.1707-.504-.256-.808-.256-.3094 0-.5814.0853-.816.256-.2347.1707-.4187.416-.552.736-.1334.32-.2.7013-.2 1.144 0 .4427.0666.824.2 1.144.1333.32.3173.5653.552.736.2346.1707.5066.256.816.256Z" fill="#FFE9D5"/><path d="M28.8906 20.2838c-6.4233 1.9972-16.7979-.0439-16.89-8.9389-.0922-8.89507 10.98-3.59638 10.98-3.59638l5.91 12.53528Z" fill="#FFC250"/><path d="M15.1236 6.35426c4.483-.76818 7.8877 5.17224 11.6547 11.36894 3.7669 6.1968 13.5759 8.653 19.8435 3.4418 6.2675-5.2111 8.9202-14.33787 1.2246-19.78183-7.6955-5.44396-12.4993 6.91555-19.1243 7.25528-6.6249.33974-6.6732-4.58478-13.5985-2.28419Z" fill="#FFD064"/><circle cx="47.1972" cy="11.6219" r="1.96745" fill="#FFE19D"/><circle cx="43.4262" cy="13.0974" r="1.47559" fill="#FFE19D"/><circle cx="46.0495" cy="15.0648" r="1.14768" fill="#FFE19D"/></svg>