<svg width="151" height="24" fill="none" xmlns="http://www.w3.org/2000/svg"><path d="M16.8906 20.2838C10.4673 22.281.0927203 20.2399.000572 11.3449-.0915763 2.44983 10.9806 7.74852 10.9806 7.74852l5.91 12.53528Z" fill="#FFC250"/><path d="M3.12363 6.35426C7.6066 5.58608 11.0113 11.5265 14.7783 17.7232c3.7669 6.1968 13.5759 8.653 19.8435 3.4418 6.2675-5.2111 8.9202-14.33787 1.2246-19.78183-7.6955-5.44396-12.4993 6.91555-19.1243 7.25528-6.6249.33974-6.6732-4.58478-13.59847-2.28419Z" fill="#FFD064"/><circle cx="35.1972" cy="11.6219" r="1.96745" fill="#FFE19D"/><circle cx="31.4262" cy="13.0974" r="1.47559" fill="#FFE19D"/><circle cx="34.0495" cy="15.0648" r="1.14768" fill="#FFE19D"/><path d="M51.1087 20V3.2h6.744c1.744 0 3.072.408 3.984 1.224.928.8 1.392 1.832 1.392 3.096 0 1.056-.288 1.904-.864 2.544-.56.624-1.248 1.048-2.064 1.272.96.192 1.752.672 2.376 1.44.624.752.936 1.632.936 2.64 0 1.328-.48 2.424-1.44 3.288-.96.864-2.32 1.296-4.08 1.296h-6.984Zm3.072-9.744h3.216c.864 0 1.528-.2 1.992-.6.464-.4.696-.968.696-1.704 0-.704-.232-1.256-.696-1.656-.448-.416-1.128-.624-2.04-.624h-3.168v4.584Zm0 7.248h3.432c.912 0 1.616-.208 2.112-.624.512-.432.768-1.032.768-1.8 0-.784-.264-1.4-.792-1.848-.528-.448-1.24-.672-2.136-.672h-3.384v4.944Zm15.1406 2.784c-1.024 0-1.864-.16-2.52-.48-.656-.336-1.144-.776-1.464-1.32-.32-.544-.48-1.144-.48-1.8 0-1.104.432-2 1.296-2.688.864-.688 2.16-1.032 3.888-1.032h3.024v-.288c0-.816-.232-1.416-.696-1.8-.464-.384-1.04-.576-1.728-.576-.624 0-1.168.152-1.632.456-.464.288-.752.72-.864 1.296h-3c.08-.864.368-1.616.864-2.256.512-.64 1.168-1.128 1.968-1.464.8-.352 1.696-.528 2.688-.528 1.696 0 3.032.424 4.008 1.272.976.848 1.464 2.048 1.464 3.6V20h-2.616l-.288-1.92c-.352.64-.848 1.168-1.488 1.584-.624.416-1.432.624-2.424.624Zm.696-2.4c.88 0 1.56-.288 2.04-.864.496-.576.808-1.288.936-2.136h-2.616c-.816 0-1.4.152-1.752.456-.352.288-.528.648-.528 1.08 0 .464.176.824.528 1.08.352.256.816.384 1.392.384ZM83.2488 20c-1.248 0-2.248-.304-3-.912-.752-.608-1.128-1.688-1.128-3.24v-5.184h-2.04V8.096h2.04l.36-3.192h2.712v3.192h3.216v2.568h-3.216v5.208c0 .576.12.976.36 1.2.256.208.688.312 1.296.312h1.488V20h-2.088Zm7.9416.288c-1.024 0-1.864-.16-2.52-.48-.656-.336-1.144-.776-1.464-1.32-.32-.544-.48-1.144-.48-1.8 0-1.104.432-2 1.296-2.688.864-.688 2.16-1.032 3.888-1.032h3.024v-.288c0-.816-.232-1.416-.696-1.8-.464-.384-1.04-.576-1.728-.576-.624 0-1.168.152-1.632.456-.464.288-.752.72-.864 1.296h-3c.08-.864.368-1.616.864-2.256.512-.64 1.168-1.128 1.968-1.464.8-.352 1.696-.528 2.688-.528 1.696 0 3.032.424 4.008 1.272.976.848 1.464 2.048 1.464 3.6V20h-2.616l-.288-1.92c-.352.64-.848 1.168-1.488 1.584-.624.416-1.432.624-2.424.624Zm.696-2.4c.88 0 1.56-.288 2.04-.864.496-.576.808-1.288.936-2.136h-2.616c-.816 0-1.4.152-1.752.456-.352.288-.528.648-.528 1.08 0 .464.176.824.528 1.08.352.256.816.384 1.392.384ZM105.118 20c-1.248 0-2.248-.304-3-.912-.752-.608-1.128-1.688-1.128-3.24v-5.184h-2.0401V8.096h2.0401l.36-3.192h2.712v3.192h3.216v2.568h-3.216v5.208c0 .576.12.976.36 1.2.256.208.688.312 1.296.312h1.488V20h-2.088Zm7.941.288c-1.024 0-1.864-.16-2.52-.48-.656-.336-1.144-.776-1.464-1.32-.32-.544-.48-1.144-.48-1.8 0-1.104.432-2 1.296-2.688.864-.688 2.16-1.032 3.888-1.032h3.024v-.288c0-.816-.232-1.416-.696-1.8-.464-.384-1.04-.576-1.728-.576-.624 0-1.168.152-1.632.456-.464.288-.752.72-.864 1.296h-3c.08-.864.368-1.616.864-2.256.512-.64 1.168-1.128 1.968-1.464.8-.352 1.696-.528 2.688-.528 1.696 0 3.032.424 4.008 1.272.976.848 1.464 2.048 1.464 3.6V20h-2.616l-.288-1.92c-.352.64-.848 1.168-1.488 1.584-.624.416-1.432.624-2.424.624Zm.696-2.4c.88 0 1.56-.288 2.04-.864.496-.576.808-1.288.936-2.136h-2.616c-.816 0-1.4.152-1.752.456-.352.288-.528.648-.528 1.08 0 .464.176.824.528 1.08.352.256.816.384 1.392.384Zm15.148 2.4c-.896 0-1.68-.168-2.352-.504-.672-.336-1.216-.808-1.632-1.416L124.583 20h-2.736V2.72h3.072V9.8c.384-.528.888-.992 1.512-1.392.64-.4 1.464-.6 2.472-.6 1.12 0 2.12.272 3 .816.88.544 1.576 1.288 2.088 2.232.512.944.768 2.016.768 3.216 0 1.2-.256 2.272-.768 3.216-.512.928-1.208 1.664-2.088 2.208-.88.528-1.88.792-3 .792Zm-.648-2.688c.976 0 1.784-.328 2.424-.984.64-.656.96-1.504.96-2.544s-.32-1.896-.96-2.568c-.64-.672-1.448-1.008-2.424-1.008-.992 0-1.808.336-2.448 1.008-.624.656-.936 1.504-.936 2.544s.312 1.896.936 2.568c.64.656 1.456.984 2.448.984Zm9.944-11.352c-.56 0-1.024-.168-1.392-.504-.352-.336-.528-.76-.528-1.272s.176-.928.528-1.248c.368-.336.832-.504 1.392-.504.56 0 1.016.168 1.368.504.368.32.552.736.552 1.248s-.184.936-.552 1.272c-.352.336-.808.504-1.368.504ZM136.663 20V8.096h3.072V20h-3.072Zm10.623 0c-1.248 0-2.248-.304-3-.912-.752-.608-1.128-1.688-1.128-3.24v-5.184h-2.04V8.096h2.04l.36-3.192h2.712v3.192h3.216v2.568h-3.216v5.208c0 .576.12.976.36 1.2.256.208.688.312 1.296.312h1.488V20h-2.088Z" fill="#F7931A"/></svg>