<svg width="41" height="25" fill="none" xmlns="http://www.w3.org/2000/svg"><path d="M23.6785 20.2905c6.4233 1.9979 16.7978-.044 16.89-8.9418.0921-8.89805-10.9801-3.59762-10.9801-3.59762L23.6785 20.2905Z" fill="#FFC250"/><path d="M37.4454 6.35634c-4.483-.76843-7.8877 5.17396-11.6546 11.37276-3.7669 6.1987-13.576 8.6557-19.84353 3.4429C-.320286 15.9591-2.97291 6.82937 4.72262 1.38363 12.4181-4.06212 17.222 8.30144 23.847 8.64128c6.6248.33985 6.6732-4.58628 13.5984-2.28494Z" fill="#FFD064"/><ellipse rx="1.96745" ry="1.96809" transform="matrix(-1 0 0 1 5.37188 11.6257)" fill="#FFE19D"/><circle r="1.47559" transform="matrix(-1 0 0 1 9.1428 13.1012)" fill="#FFE19D"/><circle r="1.14768" transform="matrix(-1 0 0 1 6.51953 15.0694)" fill="#FFE19D"/></svg>